<svg xmlns="http://www.w3.org/2000/svg" xmlns:xlink="http://www.w3.org/1999/xlink" width="500" zoomAndPan="magnify" viewBox="0 0 375 374.999991" height="500" preserveAspectRatio="xMidYMid meet" version="1.0"><defs><g/></defs><rect x="-37.5" width="450" fill="#ffffff" y="-37.499999" height="449.999989" fill-opacity="1"/><rect x="-37.5" width="450" fill="#191919" y="-37.499999" height="449.999989" fill-opacity="1"/><g fill="#ffffff" fill-opacity="1"><g transform="translate(66.674993, 301.618255)"><g><path d="M 104.8125 -78.453125 L 144.796875 -78.453125 L 165.953125 -51.328125 L 184.796875 -29.265625 L 223.09375 19 L 179.578125 19 L 153.6875 -13.484375 L 140.515625 -31.5625 Z M 120.125 3.21875 C 99.90625 3.21875 81.722656 -1.425781 65.578125 -10.71875 C 49.441406 -20.019531 36.695312 -33.40625 27.34375 -50.875 C 18 -68.34375 13.328125 -89.382812 13.328125 -114 C 13.328125 -138.71875 18 -159.835938 27.34375 -177.359375 C 36.695312 -194.878906 49.441406 -208.285156 65.578125 -217.578125 C 81.722656 -226.878906 99.90625 -231.53125 120.125 -231.53125 C 140.351562 -231.53125 158.507812 -226.878906 174.59375 -217.578125 C 190.6875 -208.285156 203.40625 -194.878906 212.75 -177.359375 C 222.101562 -159.835938 226.78125 -138.71875 226.78125 -114 C 226.78125 -89.382812 222.101562 -68.316406 212.75 -50.796875 C 203.40625 -33.273438 190.6875 -19.890625 174.59375 -10.640625 C 158.507812 -1.398438 140.351562 3.21875 120.125 3.21875 Z M 120.125 -38.3125 C 131.976562 -38.3125 142.347656 -41.222656 151.234375 -47.046875 C 160.117188 -52.867188 167.039062 -61.421875 172 -72.703125 C 176.957031 -83.992188 179.4375 -97.757812 179.4375 -114 C 179.4375 -130.34375 176.957031 -144.179688 172 -155.515625 C 167.039062 -166.859375 160.117188 -175.441406 151.234375 -181.265625 C 142.347656 -187.085938 131.976562 -190 120.125 -190 C 108.382812 -190 98.039062 -187.0625 89.09375 -181.1875 C 80.15625 -175.3125 73.207031 -166.726562 68.25 -155.4375 C 63.300781 -144.15625 60.828125 -130.34375 60.828125 -114 C 60.828125 -97.757812 63.300781 -84.019531 68.25 -72.78125 C 73.207031 -61.539062 80.15625 -52.984375 89.09375 -47.109375 C 98.039062 -41.242188 108.382812 -38.3125 120.125 -38.3125 Z M 120.125 -38.3125 "/></g></g></g></svg>